<?xml version="1.0" encoding="utf-8"?>
<!-- Generator: Adobe Illustrator 18.0.0, SVG Export Plug-In . SVG Version: 6.00 Build 0)  -->
<!DOCTYPE svg PUBLIC "-//W3C//DTD SVG 1.1//EN" "http://www.w3.org/Graphics/SVG/1.1/DTD/svg11.dtd" [
	<!ENTITY st0 "display:none;">
	<!ENTITY st1 "font-family:'ErasITC-Bold';">
	<!ENTITY st2 "font-size:41.9304;">
	<!ENTITY st3 "display:none;fill:#FFFFFF;">
	<!ENTITY st4 "display:none;fill:none;stroke:#000000;stroke-linecap:round;stroke-linejoin:round;stroke-miterlimit:10;">
	<!ENTITY st5 "fill:#EC5F4A;">
	<!ENTITY st6 "fill:none;stroke:#FFFFFF;stroke-miterlimit:10;">
	<!ENTITY st7 "display:inline;fill:#FFFFFF;">
	<!ENTITY st8 "fill:#FFFFFF;">
]>
<svg version="1.1" id="Layer_1" xmlns="http://www.w3.org/2000/svg" xmlns:xlink="http://www.w3.org/1999/xlink" x="0px" y="0px"
	 viewBox="0 0 128.5 134.5" style="enable-background:new 0 0 128.5 134.5;" xml:space="preserve">
<text transform="matrix(1 0 0 1 18.9897 64.7617)" style="&st0; &st1; &st2;">Drinky</text>
<image style="display:none;overflow:visible;" width="2500" height="2500" xlink:href="22E0CF8.jpg"  transform="matrix(4.080000e-002 0 0 4.080000e-002 13.25 19)">
</image>
<path style="&st3;" d="M62.3,120.5c-7.1,0-12.4-1.8-12.4-1.8l-2.2-48.7c0,0-1.6-13.4,6.3-29.8c4.7-11.4,3.6-33.1,3.6-33.1
	s-0.3-0.4-0.7-0.4l0-3c0,0,0.1-0.3,0.3-0.3s0.2-1.6,0.2-1.6l4.8-0.1h0.2l4.8,0.1c0,0-0.1,1.6,0.2,1.6s0.3,0.3,0.3,0.3l0,3
	c-0.4,0-0.7,0.4-0.7,0.4s-1,21.7,3.6,33.1c7.9,16.4,6.3,29.8,6.3,29.8l-2.3,48.7C74.6,118.8,71.5,120.5,62.3,120.5z"/>
<image style="display:none;overflow:visible;" width="1192" height="1500" xlink:href="22E0CFF.jpg"  transform="matrix(6.258155e-002 0 0 6.258155e-002 -128.4305 -42.7695)">
</image>
<image style="display:none;overflow:visible;" width="800" height="800" xlink:href="22E0CFB.jpg"  transform="matrix(0.2068 0 0 0.2068 -11.206 -9.206)">
</image>
<path style="&st4;" d="M162.6,31.8"/>
<path style="&st4;" d="M21.7,31.8"/>
<g style="&st0;">
	<circle style="&st5;" cx="59.7" cy="-19.8" r="211.3"/>
	<circle style="&st6;" cx="59.7" cy="-19.8" r="206.7"/>
	<circle style="&st6;" cx="59.7" cy="-19.8" r="195.6"/>
	<path style="&st7;" d="M59.7,19c0,0,14.9-0.3,15.6,0.5c0,0,6.6,20,6.6,32.6S64.2,74.9,64.2,74.9L64,75.1c0,0-1.9,2.5-1.9,5.5
		s-0.4,18.3,0.1,23.5c0.5,5.3,2,11.7,9.2,12.8c0,0,6.9,0.9,6.9,2s-2.5,2.1-17.7,2.1h-1.9c-15.2,0-17.7-1-17.7-2.1s6.9-2,6.9-2
		c7.2-1.1,8.7-7.5,9.2-12.8c0.5-5.3,0.1-20.5,0.1-23.5s-1.9-5.5-1.9-5.5l-0.2-0.2c0,0-17.7-10.2-17.7-22.8s6.6-32.6,6.6-32.6
		C44.8,18.6,59.7,19,59.7,19"/>
	<g>
		<path style="&st7;" d="M-60.4-6.5c7.2-7,13.6-19,18.2-38.6c-1.2,0.1-2.5,0.1-3.7,0.1c-25.8,0-38.6-20.8-38.6-43.3
			c0-26.5,17.5-55.2,51.9-55.2c33.5,0,48.2,32.7,48.2,67.7c0,38.6-18.2,79.4-49,79.4c-11.9,0-20-3.8-26.7-7.8
			C-67,1.7-74.7,3.7-82.6,3.7c-7.5,0-11.9-4.5-11.9-9.1s4.5-9.4,14.8-9.4C-72.9-14.8-67.2-10.7-60.4-6.5z M-61.8-5.2
			c-6.7-4.2-12-8.3-18.2-8.3c-8.2,0-12.1,4.2-12.1,8.3c0,3.8,3.4,7.5,9.9,7.5C-75.1,2.3-68.2,0.4-61.8-5.2z M12.5-75.9
			c0-34.5-14-66.4-46.2-66.4c-31.7,0-48.1,28.1-48.1,53.9c0,21.9,11.9,42.1,36.1,42.1c1.3,0,2.5,0,3.8-0.1c1.7-7.9,3.2-17,4.3-27.4
			c2.8-24.8,6.3-41.2,9.9-51.8l2.2,0.7c-3.7,10.4-7.2,27-9.7,51.1c-1.1,10.3-2.5,19.2-4.2,27.1c18.3-2.9,27.3-17.9,27.3-30.8
			c0-6.1-2-11.6-5.8-15.1l1.2-1.7c4.5,3.7,6.7,9.7,6.7,16.3c0,13.8-9.7,29.9-29.8,32.7c-4.6,20.4-11.2,32.7-19,39.9
			c6.7,4.1,14.5,7.8,25.4,7.8C-4.8,2.3,12.5-37.8,12.5-75.9z"/>
		<path style="&st7;" d="M38.1-103.3c0,7-0.4,13.6-1.6,20.3c2.5,5.3,7.8,10.9,7.8,20c0,10.9-6.3,21.3-6.3,30.4c0,3,1.3,4.6,3.2,4.6
			c4.6,0,10-12,17.3-31c0.5,0,1.1,0.3,1.1,0.8c0,0,0,0.1,0,0.3c-8,21.1-12.5,31.6-18.6,31.6c-3.6,0-5.3-2.6-5.3-7.5
			C35.6-43.2,42-53,42-63c0-7.6-3.6-12.5-5.8-17.6c-3.7,18.8-10.9,41.2-16.6,54.4l-1.2-0.7c7.5-18.2,12.9-37.7,16.5-56.9
			c-0.9-7.2-0.1-13.2,1.1-19.6L38.1-103.3z"/>
		<path style="&st7;" d="M66.3-87c-3.7,19.8-8.2,41.9-8.2,52.6c0,4.1,0.7,6.5,2.2,6.5c4.6,0,10-12,17.3-31c0.5,0,1.1,0.3,1.1,0.8
			c0,0,0,0.1,0,0.3c-8,21.1-12.5,31.6-18.6,31.6c-3,0-4.2-4-4.2-10.3c0-11.7,4.1-31.9,7.8-50.4H66.3z M67.4-102.8
			c1.2,0,1.7,0.9,1.7,2c0,1.3-0.7,2.2-1.7,2.2c-1.2,0-1.6-0.8-1.6-1.8C65.8-101.3,66.1-102.8,67.4-102.8z"/>
		<path style="&st7;" d="M95.7-33.2c0,3.2,1.2,5.3,3.6,5.3c5.4,0,11.9-15.8,17.6-31c0.5,0,1.1,0.3,1.1,0.8c0,0,0,0.1,0,0.3
			c-5.8,15-11.7,31.6-19,31.6c-4.1,0-5.9-2.9-5.9-7.1c0-10.1,10-38.2,10-45.7c0-4.7-1.1-7.1-4-7.1c-6.7,0-15.3,18.4-20.8,34.4
			l-4.5,24.9h-2.9c0.5-3.7,2-10.5,4.2-18.4c2.5-13.6,5.8-32.3,6.6-41.6h2.8c-0.1,1.6-2.4,14.4-4.9,27.8
			c5.5-14.6,12.9-28.4,20.2-28.4c3.8,0,5.8,3.6,5.8,8.6C105.6-69.2,95.7-44,95.7-33.2z"/>
		<path style="&st7;" d="M149.9-58.9c0.5,0,1.2,0.3,1.2,0.9c0,0.1,0,0.1,0,0.3c-5.8,15-12.8,31.5-19.1,31.5c-7,0-6.8-19.9-10.7-25.2
			c-0.7,0.1-1.3,0.3-2,0.3c-0.5,0-0.9-0.1-1.2-0.3c0,0.3-0.1,0.5-0.3,0.8c-1.1,8.2-2.1,16.2-3.3,23.7h-2.9
			c5-25.4,12.5-103.7,25-103.7c1.8,0,3,1.8,3,5.3c0,13.6-16.9,56.9-20.8,66.9l-0.4,2.9c6.8-17.5,13.3-31.9,20.8-31.9
			c2.4,0,3.4,1.6,3.4,4.1c0,8.4-11.2,26.9-20,31.2c4.5,6.2,5.5,24.1,9.5,24.1C136.8-28,144.2-43.8,149.9-58.9z M119.1-54h0.5
			c0.8,0,1.4,0.3,2.1,0.8c8.3-3.6,19-22.7,19-29.9c0-1.7-0.7-2.8-2-2.8C134-85.9,126.9-74.8,119.1-54z M136.6-129.4
			c-5.9,0-13.2,40.7-17,66.6c4.2-11.5,18.8-50.3,18.7-63.3C138.4-128.3,138-129.4,136.6-129.4z"/>
		<path style="&st7;" d="M158-87c-3.7,19.6-8.6,40.8-8.6,51.8c0,4.7,0.9,7.2,3.2,7.2c5.4,0,14-15.8,17.7-32.8
			c1.8-10.9,3.7-20.3,4.9-26.2h2.9c-1.6,5.9-7,37.3-11.5,62.3c18.7-19.6,44.5-44.4,44.5-72c0-20.4-14.5-31-29.4-31
			c-11.5,0-23.2,6.3-28.8,19.4l-2.9-1.3c6.3-12.8,19.4-19.4,32.1-19.4c16.2,0,31.7,10.9,31.7,32.1c0,29.1-28.6,54.9-47.7,74.9
			l-4.6,25.8c-1.1,5.8-4.3,9.2-8.4,9.2c-3.2,0-5.7-3.3-5.7-8.3c0-7.5,6.1-15.5,15.9-26.1l4.5-26.2c-4.5,12.2-10.8,21.2-15.7,21.2
			c-3.4,0-4.7-4.2-4.7-10.7c0-11.7,4.2-31.3,7.9-50H158z M149.2,5.1c0,4.6,1.8,6.7,4.2,6.7c2.8,0,4.7-3,5.7-8.2l3.8-22.3
			c-7.2,7.9-12.6,14.8-13.4,20.5C149.2,3.1,149.2,4.2,149.2,5.1z"/>
	</g>
</g>
<path style="&st3;" d="M71.5,137.9c18,0,27.4-4.4,27.4-8.8s-12.1-5.8-12.1-5.8s-10.1,1.3-12.4-8.5s0.9-34.3,0.9-40.3
	s6.6-15.8,6.6-15.8s6.5-8.5,8.4-13s23-32.1,23-32.1s-3.6-3.1-41.8-3.1s-41.8,3.1-41.8,3.1s21.1,27.6,23,32.1s8.4,13,8.4,13
	s6.6,9.8,6.6,15.8s3.1,30.5,0.9,40.3s-12.4,8.5-12.4,8.5s-12.1,1.4-12.1,5.8S53.5,137.9,71.5,137.9z"/>
<g style="&st0;">
	<path style="&st7;" d="M63.4,112.2c0,0,8.1,0,11-1c2.7,0,2.5-2.8,2.5-2.8S75.8,94.7,75.4,89c-0.4-5.7,1.1-14,1.1-14
		s6.4-47.7,6.2-47.3c-0.2,0.4-19.3,0.6-19.3,0.6h1.7c0,0-19.1-0.2-19.3-0.6C45.6,27.3,52,75,52,75s1.5,8.2,1.1,14
		c-0.4,5.7-1.5,19.3-1.5,19.3s-0.2,2.8,2.5,2.8c2.9,1,11,1,11,1H63.4z"/>
</g>
<path style="&st8;" d="M63.6,120.6c0,0,2.1,0.4,8-0.8c5.9-1.2,5.4-6.5,5.4-6.5l-0.1-20.8c0,0,2-25-3.3-34.9
	c-5-9.1-5.3-20.3-5.3-20.3s-0.5-13.6-0.2-13.6c0.3,0,0.4-0.5,0.4-0.5s0-2,0-2.2s-0.3-0.4-0.3-0.4s0-0.5,0-0.7c0-0.2-0.2-0.3,0-0.4
	c0.1-0.1,0-0.3,0-0.3l-4.7,0c0,0-4.7,0-4.7,0s-0.1,0.2,0,0.3s-0.1,0.3,0,0.4c0,0.2,0,0.7,0,0.7s-0.3,0.2-0.3,0.4s0,2.2,0,2.2
	s0.1,0.5,0.4,0.5c0.3,0-0.2,13.6-0.2,13.6s-0.3,11.2-5.3,20.3c-5.3,9.9-3.3,34.9-3.3,34.9l-0.1,20.8c0,0-0.5,5.3,5.4,6.5
	C61.5,121,63.6,120.6,63.6,120.6z"/>
</svg>
