<?xml version="1.0" encoding="utf-8"?>
<!-- Generator: Adobe Illustrator 18.0.0, SVG Export Plug-In . SVG Version: 6.00 Build 0)  -->
<!DOCTYPE svg PUBLIC "-//W3C//DTD SVG 1.1//EN" "http://www.w3.org/Graphics/SVG/1.1/DTD/svg11.dtd" [
	<!ENTITY st0 "display:none;">
	<!ENTITY st1 "font-family:'ErasITC-Bold';">
	<!ENTITY st2 "font-size:41.9304;">
	<!ENTITY st3 "display:none;fill:#FFFFFF;">
	<!ENTITY st4 "display:none;fill:none;stroke:#000000;stroke-linecap:round;stroke-linejoin:round;stroke-miterlimit:10;">
	<!ENTITY st5 "fill:#EC5F4A;">
	<!ENTITY st6 "fill:none;stroke:#FFFFFF;stroke-miterlimit:10;">
	<!ENTITY st7 "fill:#FFFFFF;">
]>
<svg version="1.1" id="Layer_1" xmlns="http://www.w3.org/2000/svg" xmlns:xlink="http://www.w3.org/1999/xlink" x="0px" y="0px"
	 viewBox="0 0 225.3 232.7" style="enable-background:new 0 0 225.3 232.7;" xml:space="preserve">
<text transform="matrix(1 0 0 1 60.1564 107.5951)" style="&st0; &st1; &st2;">Drinky</text>
<image style="display:none;overflow:visible;" width="2500" height="2500" xlink:href="2AFF1FB.jpg"  transform="matrix(9.147163e-002 0 0 9.147163e-002 0.3271 -16.5062)">
</image>
<path style="&st3;" d="M103.4,163.4c-7.1,0-12.4-1.8-12.4-1.8l-2.2-48.7c0,0-1.6-13.4,6.3-29.8C99.8,71.7,98.8,50,98.8,50
	s-0.3-0.4-0.7-0.4l0-3c0,0,0.1-0.3,0.3-0.3s0.2-1.6,0.2-1.6l4.8-0.1h0.2l4.8,0.1c0,0-0.1,1.6,0.2,1.6s0.3,0.3,0.3,0.3l0,3
	c-0.4,0-0.7,0.4-0.7,0.4s-1,21.7,3.6,33.1c7.9,16.4,6.3,29.8,6.3,29.8l-2.3,48.7C115.8,161.6,112.7,163.4,103.4,163.4z"/>
<image style="display:none;overflow:visible;" width="1192" height="1500" xlink:href="2AFF1F9.jpg"  transform="matrix(6.258155e-002 0 0 6.258155e-002 -87.2639 6.384178e-002)">
</image>
<image style="display:none;overflow:visible;" width="800" height="800" xlink:href="2AFF1FF.jpg"  transform="matrix(0.2068 0 0 0.2068 29.9607 33.6274)">
</image>
<path style="&st4;" d="M203.8,74.7"/>
<path style="&st4;" d="M62.9,74.7"/>
<g>
	<circle style="&st5;" cx="112.3" cy="116.1" r="107.3"/>
	<circle style="&st6;" cx="112.3" cy="116.1" r="105"/>
	<circle style="&st6;" cx="112.3" cy="116.1" r="99.3"/>
	<path style="&st7;" d="M112.3,135.7c0,0,7.6-0.2,7.9,0.3c0,0,3.4,10.2,3.4,16.6s-9,11.6-9,11.6l-0.1,0.1c0,0-0.9,1.3-0.9,2.8
		c0,1.5-0.2,9.3,0.1,11.9c0.2,2.7,1,5.9,4.7,6.5c0,0,3.5,0.4,3.5,1c0,0.6-1.3,1.1-9,1.1h-1c-7.7,0-9-0.5-9-1.1c0-0.6,3.5-1,3.5-1
		c3.7-0.5,4.4-3.8,4.7-6.5c0.2-2.7,0.1-10.4,0.1-11.9c0-1.5-0.9-2.8-0.9-2.8l-0.1-0.1c0,0-9-5.2-9-11.6s3.4-16.6,3.4-16.6
		C104.8,135.6,112.3,135.7,112.3,135.7"/>
	<g>
		<path style="&st7;" d="M51.4,122.8c3.7-3.5,6.9-9.6,9.2-19.6c-0.6,0.1-1.3,0.1-1.9,0.1c-13.1,0-19.6-10.6-19.6-22
			c0-13.4,8.9-28,26.4-28c17,0,24.5,16.6,24.5,34.4c0,19.6-9.2,40.3-24.9,40.3c-6,0-10.2-1.9-13.6-3.9C48,127,44.1,128,40.1,128
			c-3.8,0-6-2.3-6-4.6s2.3-4.7,7.5-4.7C45,118.6,47.9,120.7,51.4,122.8z M50.6,123.5c-3.4-2.1-6.1-4.2-9.2-4.2
			c-4.1,0-6.2,2.1-6.2,4.2c0,1.9,1.7,3.8,5,3.8C43.9,127.3,47.4,126.3,50.6,123.5z M88.4,87.6c0-17.5-7.1-33.7-23.5-33.7
			c-16.1,0-24.4,14.2-24.4,27.4c0,11.1,6,21.4,18.3,21.4c0.7,0,1.3,0,1.9-0.1c0.9-4,1.6-8.6,2.2-13.9c1.4-12.6,3.2-20.9,5-26.3
			l1.1,0.3c-1.9,5.3-3.7,13.7-4.9,26c-0.5,5.2-1.3,9.8-2.1,13.8c9.3-1.5,13.8-9.1,13.8-15.7c0-3.1-1-5.9-2.9-7.7l0.6-0.9
			c2.3,1.9,3.4,4.9,3.4,8.3c0,7-4.9,15.2-15.1,16.6c-2.3,10.4-5.7,16.6-9.6,20.3c3.4,2.1,7.4,3.9,12.9,3.9
			C79.6,127.3,88.4,106.9,88.4,87.6z"/>
		<path style="&st7;" d="M101.4,73.7c0,3.5-0.2,6.9-0.8,10.3c1.3,2.7,3.9,5.6,3.9,10.2c0,5.6-3.2,10.8-3.2,15.5
			c0,1.5,0.7,2.3,1.6,2.3c2.3,0,5.1-6.1,8.8-15.7c0.3,0,0.5,0.1,0.5,0.4c0,0,0,0.1,0,0.1c-4.1,10.7-6.4,16.1-9.4,16.1
			c-1.8,0-2.7-1.3-2.7-3.8c0-4.8,3.2-9.8,3.2-14.9c0-3.9-1.8-6.4-2.9-9c-1.9,9.6-5.6,20.9-8.4,27.6l-0.6-0.3
			c3.8-9.2,6.6-19.1,8.4-28.9c-0.5-3.7-0.1-6.7,0.5-10L101.4,73.7z"/>
		<path style="&st7;" d="M115.7,81.9c-1.9,10-4.1,21.3-4.1,26.7c0,2.1,0.3,3.3,1.1,3.3c2.3,0,5.1-6.1,8.8-15.7
			c0.3,0,0.5,0.1,0.5,0.4c0,0,0,0.1,0,0.1c-4.1,10.7-6.4,16.1-9.4,16.1c-1.5,0-2.1-2-2.1-5.2c0-6,2.1-16.2,3.9-25.6H115.7z
			 M116.2,73.9c0.6,0,0.9,0.5,0.9,1c0,0.7-0.3,1.1-0.9,1.1c-0.6,0-0.8-0.4-0.8-0.9C115.4,74.7,115.6,73.9,116.2,73.9z"/>
		<path style="&st7;" d="M130.6,109.2c0,1.6,0.6,2.7,1.8,2.7c2.7,0,6-8,9-15.7c0.3,0,0.5,0.1,0.5,0.4c0,0,0,0.1,0,0.1
			c-2.9,7.6-6,16.1-9.6,16.1c-2.1,0-3-1.5-3-3.6c0-5.2,5.1-19.4,5.1-23.2c0-2.4-0.5-3.6-2-3.6c-3.4,0-7.8,9.4-10.6,17.5l-2.3,12.6
			h-1.5c0.3-1.9,1-5.4,2.1-9.4c1.3-6.9,2.9-16.4,3.3-21.1h1.4c-0.1,0.8-1.2,7.3-2.5,14.1c2.8-7.4,6.6-14.4,10.2-14.4
			c1.9,0,2.9,1.8,2.9,4.3C135.6,91,130.6,103.8,130.6,109.2z"/>
		<path style="&st7;" d="M158.2,96.2c0.3,0,0.6,0.1,0.6,0.5c0,0.1,0,0.1,0,0.1c-2.9,7.6-6.5,16-9.7,16c-3.5,0-3.5-10.1-5.4-12.8
			c-0.3,0.1-0.7,0.1-1,0.1c-0.3,0-0.5-0.1-0.6-0.1c0,0.1-0.1,0.3-0.1,0.4c-0.5,4.1-1.1,8.2-1.7,12h-1.5c2.5-12.9,6.4-52.6,12.7-52.6
			c0.9,0,1.5,0.9,1.5,2.7c0,6.9-8.6,28.9-10.6,34l-0.2,1.5c3.5-8.9,6.8-16.2,10.6-16.2c1.2,0,1.7,0.8,1.7,2.1
			c0,4.3-5.7,13.6-10.2,15.9c2.3,3.1,2.8,12.2,4.8,12.2C151.5,111.9,155.2,103.9,158.2,96.2z M142.5,98.7h0.3c0.4,0,0.7,0.1,1.1,0.4
			c4.2-1.8,9.6-11.5,9.6-15.2c0-0.9-0.3-1.4-1-1.4C150.1,82.5,146.5,88.1,142.5,98.7z M151.4,60.4c-3,0-6.7,20.7-8.6,33.8
			c2.1-5.8,9.6-25.6,9.5-32.2C152.3,60.9,152.1,60.4,151.4,60.4z"/>
		<path style="&st7;" d="M162.3,81.9c-1.9,10-4.3,20.7-4.3,26.3c0,2.4,0.5,3.7,1.6,3.7c2.7,0,7.1-8,9-16.7
			c0.9-5.6,1.9-10.3,2.5-13.3h1.5c-0.8,3-3.5,18.9-5.8,31.6c9.5-10,22.6-22.5,22.6-36.6c0-10.4-7.4-15.7-14.9-15.7
			c-5.8,0-11.8,3.2-14.6,9.8l-1.5-0.7c3.2-6.5,9.8-9.8,16.3-9.8c8.2,0,16.1,5.6,16.1,16.3c0,14.8-14.5,27.9-24.2,38.1l-2.3,13.1
			c-0.5,2.9-2.2,4.7-4.3,4.7c-1.6,0-2.9-1.7-2.9-4.2c0-3.8,3.1-7.9,8.1-13.2l2.3-13.3c-2.3,6.2-5.5,10.8-8,10.8
			c-1.7,0-2.4-2.1-2.4-5.4c0-6,2.1-15.9,4-25.4H162.3z M157.8,128.7c0,2.3,0.9,3.4,2.1,3.4c1.4,0,2.4-1.5,2.9-4.1l1.9-11.3
			c-3.7,4-6.4,7.5-6.8,10.4C157.8,127.7,157.8,128.2,157.8,128.7z"/>
	</g>
</g>
<path style="&st3;" d="M112.7,180.7c18,0,27.4-4.4,27.4-8.8s-12.1-5.8-12.1-5.8s-10.1,1.3-12.4-8.5s0.9-34.2,0.9-40.2
	s6.6-15.8,6.6-15.8s6.5-8.5,8.4-13s23-32.1,23-32.1s-3.6-3.1-41.8-3.1s-41.8,3.1-41.8,3.1s21.1,27.6,23,32.1s8.4,13,8.4,13
	s6.6,9.8,6.6,15.8s3.1,30.5,0.9,40.2s-12.4,8.5-12.4,8.5s-12.1,1.4-12.1,5.8S94.7,180.7,112.7,180.7z"/>
</svg>
