<?xml version="1.0" encoding="utf-8"?>
<!-- Generator: Adobe Illustrator 18.0.0, SVG Export Plug-In . SVG Version: 6.00 Build 0)  -->
<!DOCTYPE svg PUBLIC "-//W3C//DTD SVG 1.1//EN" "http://www.w3.org/Graphics/SVG/1.1/DTD/svg11.dtd" [
	<!ENTITY st0 "fill:#EC5F4A;">
	<!ENTITY st1 "fill:none;stroke:#FFFFFF;stroke-miterlimit:10;">
	<!ENTITY st2 "fill:#FFFFFF;">
	<!ENTITY st3 "fill:#FDFDFE;">
]>
<svg version="1.1" id="Layer_1" xmlns="http://www.w3.org/2000/svg" xmlns:xlink="http://www.w3.org/1999/xlink" x="0px" y="0px"
	 viewBox="0 0 225.3 232.7" style="enable-background:new 0 0 225.3 232.7;" xml:space="preserve">
<g>
	<circle style="&st0;" cx="112.3" cy="116.1" r="107.3"/>
	<circle style="&st1;" cx="112.3" cy="116.1" r="105"/>
	<circle style="&st1;" cx="112.3" cy="116.1" r="99.3"/>
	<path style="&st2;" d="M112.3,135.7c0,0,7.6-0.2,7.9,0.3c0,0,3.4,10.2,3.4,16.6s-9,11.6-9,11.6l-0.1,0.1c0,0-0.9,1.3-0.9,2.8
		c0,1.5-0.2,9.3,0.1,11.9c0.2,2.7,1,5.9,4.7,6.5c0,0,3.5,0.4,3.5,1c0,0.6-1.3,1.1-9,1.1h-1c-7.7,0-9-0.5-9-1.1c0-0.6,3.5-1,3.5-1
		c3.7-0.5,4.4-3.8,4.7-6.5c0.2-2.7,0.1-10.4,0.1-11.9c0-1.5-0.9-2.8-0.9-2.8l-0.1-0.1c0,0-9-5.2-9-11.6s3.4-16.6,3.4-16.6
		C104.8,135.6,112.3,135.7,112.3,135.7"/>
</g>
<g>
	<path style="&st3;" d="M49.7,111.1c-5.1,4.1-10.7,5.8-17.4,5c-14.2-1.7-9.4-18.1,6.3-12.7c2.6,1,8.3,4,10.6,5.1
		c10.3-9.9,15.5-28.9,26.4-41.1c-6.8-4.1-15.3-5.7-23.9-3.9C32.4,67.7,26.6,84.8,36.9,88c8.2,2.6,12.4-5.1,12.6-7.6
		c0.1-0.7,1.6-0.7,1.4,0.6c-1,6.9-8.6,10.8-14.7,8.6C24,85.5,24.4,65.3,53.1,61.1c8.6-1.3,17.2,0.3,24.5,4.2
		c3.5-4.2,7.2-6.7,9.1-6.3c0.9,0.2,0.5,0.9,0,0.9c-1.9,0-5.3,5.6-6.1,7.2c9.5,6.3,15.6,16.7,14.3,29.9C92.7,119,63.8,119,49.7,111.1
		z M36.9,105.2c-10.1-3.5-11.3,8.5-2.8,8.9c5,0.2,9.5-1.4,13.3-4.2C44,108.3,41.1,106.7,36.9,105.2z M78.9,69.7
		c-8.1,12.8-17.2,29.4-24.8,37.6c-0.9,1-1.7,1.7-2.6,2.5c13.4,8,37.1,5.1,39-12.7C91.6,85.7,86.7,75.9,78.9,69.7z"/>
	<path style="&st3;" d="M107.1,113.5c-2.4,0.6-6.6-1.5-3.8-8.8c1-2.9,3.5-6.5,4.3-8.2c1-2.3-1.5-3.2-5.4-3.3l-0.8,2.2
		c-1.7,4.4-5,12.1-8.4,15.4c-0.6,0.5-1-0.3-0.6-0.9c5.5-7.2,9.3-17.7,10.7-25.5c0.7-3.9,5.2-2.2,4.2,2.5c-0.4,1.9-2.6,3.8-3.8,4.7
		c2.6,0.1,6.2,0.1,9.6-0.3c0.5,1-0.6,3.6-1.5,5.4c-1,2.2-8.1,14.9-4,15.1c2.9,0.1,7.2-8.6,8.6-11.6c0.6-1.2,1.5-0.7,0.8,0.7
		C115.1,105,111.6,112.4,107.1,113.5z"/>
	<path style="&st3;" d="M118.6,112c1,0.1,2.4-0.6,3.1-1.3c2.3-2.3,4.6-6.6,6.5-10.5c0.6-1.3,1.5-0.8,0.9,0.6
		c-1.8,3.9-5.8,12.7-10.9,12.7c-5.2,0-5.2-5.4-3.8-9l4.5-11.3c0.6-1.3-0.4-2.6-0.7-2.9l3.8-0.1c2.2,0,2.2,0.8,1.5,2.4l-5.6,13
		c0,0-0.7,1.5-0.8,2C116.5,109.9,116.6,111.9,118.6,112z M123.6,87.3c-1.6,0-2.6-1.3-2.4-2.9c0.3-1.6,1.8-2.9,3.3-2.9
		c1.6,0,2.7,1.3,2.4,2.9S125.2,87.3,123.6,87.3z"/>
	<path style="&st3;" d="M141.1,113.8c-2.4,0-5.8-1.7-3.7-8.1c0.6-1.8,1.9-4.2,3.8-7.3c1.7-2.7,0.4-4.6-4.9,0.4
		c-2.4,2.2-5.8,6.1-9.7,13.8c-0.6,1-1.2,1-2.6,1c-1,0.1-1.7,0-2.4,0.4c3.3-6.6,6.2-13.2,9.6-19.5c1.8-3.3,2.7-4.5,4.9-4.4
		c0.9,0.1,1.9,0.5,2.9,0.3c-2.1,1.1-5.9,8.1-8.4,13.1c1.4-1.7,3.6-4.4,5.8-6.3c3.3-3,10.5-7.4,12.9-6.5c0,0-7.4,13.1-8.3,17.9
		c-0.6,2.9,0.2,3.5,1.1,3.5c3.6,0,8.1-9.1,9.5-12c0.6-1.3,1.7-0.8,1,0.6C150.5,105,146.5,113.8,141.1,113.8z"/>
	<path style="&st3;" d="M170.5,70.6h0.3c0.9,0.1,1.9,0.5,2.9,0.3c-3.5,2.7-10.6,14-15.3,23.2c-0.9,1.8-1.8,3.8-2.5,5.9
		c2.9-3.6,7.3-8.2,11.3-9.7c9-3.3,8.1,4.5,2.9,8.2c-2.1,1.5-4,2.4-7,2.7c-2.6,6.5,1.8,15.2,8.2,8.3c1.7-1.9,3.7-5.5,5.6-9.5
		c0.6-1.1,1.4-0.5,0.9,0.6c-5.5,12.7-9.8,13.8-13.8,13.4c-2.5-0.3-4.7-2.3-5.4-5.9c-0.8-4.5,1.7-7.9,3.3-8c1.5,0.1,3.9-0.8,5.5-2.1
		c4.4-3.5,1.3-8.4-6.7-1.6c-1.8,1.6-3.8,3.7-5.7,6.3c-1.3,2.4-3.1,9.9-1.9,10.8h-4.4c-1,0-0.8-0.6-0.6-1.5c1.3-4.8,3.6-8.8,5.7-13.6
		c-3.2,6.1-6,11.1-7.4,12.4c-0.6,0.5-1-0.3-0.6-0.9c4.7-6.3,13.9-27.1,19.9-36C167.6,71.5,169,70.5,170.5,70.6z"/>
	<path style="&st3;" d="M189,117c-4.4,7.9-11.3,18.5-21.6,18.5c-7,0-7.7-4.6-5.6-8.5c1.3-2.6,3.8-4.5,6.5-5.7
		c4.7-2.2,11.3-3.4,16.9-5c2.6-4.6,4.9-12,6-15.6c-2.4,4.2-6.9,12.8-12.2,12.8c-1.4,0-3.8-0.5-4.4-3.1c-0.6-3,1.1-5.6,2.4-8.1
		c-0.4,0-1-0.2-0.6-1.1l1.3-2.4c1.4-2.6,2.9-5.5,3.9-7.7c0.6-1.1,1.4-1.5,2.7-1.5h4.2c-0.6,0.6-1.7,1-2.6,2.5
		c-2.4,4-4.3,8.1-6.3,12.3c-3.3,7.2-0.4,10,4.1,4.8c3.9-4.5,8.3-12.7,10.9-18.2c0.6-1.1,1.4-1.5,2.7-1.5h3.8
		c-2.6,1.8-3.7,4.6-5.4,9.3c-1.7,4.7-3.5,10.4-5.6,15.9c3.1-0.9,7.3-3,10-6.9c2.2-3.1,3.7-6.3,4.4-7.7c0.6-1.3,1.7-0.8,1,0.6
		C200.8,110.5,199,113.4,189,117z M169.6,122.9c-7.1,3.1-9.7,11.3-3.8,11.3c6.1,0,13.5-8.6,16.7-13l1.5-2.6
		C179.5,119.7,173.5,121.1,169.6,122.9z"/>
</g>
</svg>
