<?xml version="1.0" encoding="utf-8"?>
<!-- Generator: Adobe Illustrator 18.0.0, SVG Export Plug-In . SVG Version: 6.00 Build 0)  -->
<!DOCTYPE svg PUBLIC "-//W3C//DTD SVG 1.1//EN" "http://www.w3.org/Graphics/SVG/1.1/DTD/svg11.dtd" [
	<!ENTITY st0 "fill:#FFFFFF;">
]>
<svg version="1.1" id="Layer_1" xmlns="http://www.w3.org/2000/svg" xmlns:xlink="http://www.w3.org/1999/xlink" x="0px" y="0px"
	 viewBox="0 0 162 64.3" style="enable-background:new 0 0 162 64.3;" xml:space="preserve">
<g>
	<path style="&st0;" d="M33.1,43.1c-3.7,3-7.9,4.3-12.8,3.7c-10.4-1.2-6.9-13.3,4.6-9.3c1.9,0.7,6.1,2.9,7.8,3.8
		C40.3,34,44.1,20,52.2,11.1c-5-3-11.2-4.2-17.6-2.9c-14.2,3-18.5,15.6-10.9,18c6,1.9,9.1-3.8,9.3-5.6c0.1-0.5,1.2-0.5,1,0.5
		c-0.7,5.1-6.3,7.9-10.8,6.3c-8.9-3.1-8.6-17.9,12.4-21c6.3-0.9,12.7,0.3,18,3.1c2.6-3.1,5.3-5,6.7-4.7c0.7,0.2,0.4,0.7,0,0.7
		c-1.4,0-3.9,4.1-4.5,5.3c7,4.6,11.5,12.3,10.5,22C64.7,49,43.5,49,33.1,43.1z M23.7,38.8c-7.4-2.6-8.3,6.2-2,6.5
		c3.7,0.2,7-1,9.8-3.1C29,41.1,26.8,39.9,23.7,38.8z M54.6,12.7c-6,9.4-12.6,21.6-18.2,27.7c-0.7,0.7-1.3,1.3-1.9,1.8
		c9.9,5.9,27.2,3.8,28.7-9.4C63.9,24.5,60.3,17.3,54.6,12.7z"/>
	<path style="&st0;" d="M75.3,44.9c-1.7,0.4-4.9-1.1-2.8-6.4c0.8-2.1,2.6-4.8,3.2-6c0.7-1.7-1.1-2.4-3.9-2.4l-0.6,1.6
		c-1.2,3.2-3.7,8.9-6.2,11.3c-0.4,0.4-0.7-0.2-0.4-0.7c4-5.3,6.8-13,7.9-18.8c0.5-2.9,3.8-1.6,3.1,1.8c-0.3,1.4-1.9,2.8-2.8,3.4
		c1.9,0.1,4.5,0.1,7.1-0.2c0.4,0.7-0.5,2.7-1.1,3.9c-0.8,1.6-6,10.9-2.9,11.1c2.1,0.1,5.3-6.3,6.3-8.5c0.5-0.9,1.1-0.5,0.6,0.5
		C81.2,38.7,78.6,44.1,75.3,44.9z"/>
	<path style="&st0;" d="M83.8,43.8c0.8,0.1,1.7-0.5,2.3-1c1.7-1.7,3.4-4.9,4.8-7.7c0.4-0.9,1.1-0.6,0.7,0.5c-1.3,2.9-4.2,9.4-8,9.4
		c-3.8,0-3.8-4-2.8-6.6L84,30c0.4-1-0.3-1.9-0.5-2.1l2.8-0.1c1.6,0,1.6,0.6,1.1,1.8l-4.1,9.6c0,0-0.5,1.1-0.6,1.5
		C82.2,42.3,82.3,43.7,83.8,43.8z M87.4,25.7c-1.2,0-1.9-0.9-1.8-2.1c0.2-1.2,1.3-2.1,2.5-2.1c1.2,0,2,0.9,1.8,2.1
		C89.7,24.8,88.6,25.7,87.4,25.7z"/>
	<path style="&st0;" d="M100.3,45.2c-1.8,0-4.2-1.2-2.7-6c0.4-1.3,1.4-3.1,2.8-5.4c1.2-2,0.3-3.4-3.6,0.3c-1.7,1.6-4.2,4.4-7.1,10.1
		C89.3,45,88.8,45,87.7,45c-0.8,0.1-1.2,0-1.7,0.3c2.5-4.9,4.5-9.7,7.1-14.3c1.3-2.5,2-3.3,3.6-3.2c0.7,0.1,1.4,0.4,2.1,0.2
		c-1.5,0.8-4.3,5.9-6.2,9.6c1-1.3,2.7-3.2,4.2-4.6c2.5-2.2,7.7-5.4,9.5-4.8c0,0-5.5,9.6-6.1,13.2c-0.4,2.1,0.2,2.6,0.8,2.6
		c2.7,0,5.9-6.7,7-8.8c0.4-0.9,1.2-0.6,0.7,0.5C107.2,38.7,104.3,45.2,100.3,45.2z"/>
	<path style="&st0;" d="M121.9,13.4h0.3c0.7,0.1,1.4,0.4,2.1,0.2c-2.6,2-7.8,10.3-11.2,17.1c-0.7,1.3-1.3,2.8-1.8,4.3
		c2.1-2.7,5.4-6,8.3-7.2c6.6-2.5,6,3.3,2.1,6c-1.5,1.1-2.9,1.8-5.2,2c-1.9,4.8,1.3,11.1,6,6.1c1.3-1.4,2.7-4,4.1-7
		c0.4-0.8,1-0.4,0.7,0.5c-4,9.3-7.2,10.1-10.2,9.8c-1.8-0.2-3.4-1.7-3.9-4.3c-0.6-3.3,1.3-5.8,2.4-5.9c1.1,0.1,2.9-0.6,4-1.5
		c3.2-2.6,1-6.2-4.9-1.2c-1.3,1.2-2.8,2.7-4.2,4.7c-0.9,1.7-2.3,7.3-1.4,8h-3.2c-0.7,0-0.6-0.5-0.4-1.1c0.9-3.5,2.7-6.4,4.2-10
		c-2.4,4.4-4.4,8.1-5.4,9.1c-0.4,0.4-0.7-0.2-0.4-0.7c3.5-4.6,10.2-19.9,14.6-26.4C119.7,14.1,120.8,13.3,121.9,13.4z"/>
	<path style="&st0;" d="M135.5,47.5c-3.2,5.8-8.3,13.6-15.8,13.6c-5.1,0-5.6-3.4-4.1-6.2c1-1.9,2.8-3.3,4.8-4.2
		c3.4-1.6,8.3-2.5,12.4-3.7c1.9-3.4,3.6-8.8,4.4-11.5c-1.7,3.1-5.1,9.4-9,9.4c-1,0-2.8-0.4-3.2-2.3c-0.5-2.2,0.8-4.1,1.7-5.9
		c-0.3,0-0.8-0.2-0.5-0.8l0.9-1.8c1-1.9,2.1-4,2.9-5.6c0.4-0.8,1-1.1,2-1.1h3.1c-0.5,0.4-1.3,0.8-1.9,1.8c-1.7,3-3.2,6-4.6,9
		c-2.5,5.3-0.3,7.4,3,3.5c2.9-3.3,6.1-9.3,8-13.3c0.4-0.8,1-1.1,2-1.1h2.8c-1.9,1.3-2.7,3.4-4,6.8c-1.3,3.4-2.6,7.7-4.1,11.7
		c2.2-0.7,5.4-2.2,7.4-5.1c1.6-2.3,2.7-4.7,3.2-5.6c0.5-0.9,1.2-0.6,0.7,0.5C144.2,42.7,142.8,44.9,135.5,47.5z M121.2,51.8
		c-5.2,2.2-7.2,8.3-2.8,8.3c4.5,0,9.9-6.3,12.3-9.6l1.1-1.9C128.5,49.5,124.1,50.5,121.2,51.8z"/>
</g>
</svg>
